
<svg version="1.0" xmlns="http://www.w3.org/2000/svg"
 width="576.000000pt" height="292.000000pt" viewBox="0 0 576.000000 292.000000"
 preserveAspectRatio="xMidYMid meet">

<g transform="translate(0.000000,292.000000) scale(0.100000,-0.100000)"
fill="#000000" stroke="none">
<path d="M1605 2642 c-22 -11 -117 -72 -212 -136 -196 -134 -215 -155 -221
-252 -6 -90 33 -156 115 -198 40 -20 122 -21 168 -2 44 19 354 228 383 259 26
28 52 98 52 141 0 50 -49 137 -96 169 -54 38 -133 45 -189 19z"/>
<path d="M4182 2647 c-18 -7 -220 -140 -449 -297 l-417 -285 64 -6 c36 -4 169
-7 296 -8 179 -1 241 -4 275 -16 l43 -15 55 39 c31 21 121 84 200 139 177 123
201 153 201 252 0 58 -4 73 -31 113 -52 79 -152 114 -237 84z"/>
<path d="M2458 2336 c-35 -13 -150 -88 -661 -434 -248 -167 -236 -154 -169
-188 7 -3 22 2 33 12 20 18 39 19 330 15 l309 -3 167 112 c196 132 219 151
244 205 45 96 2 221 -92 270 -40 22 -119 27 -161 11z"/>
<path d="M485 1951 l-110 -6 2 -483 c1 -266 4 -486 7 -489 3 -3 82 -8 175 -11
l170 -5 3 88 3 88 57 13 c81 19 133 48 200 112 100 95 138 186 138 329 0 177
-91 301 -259 354 -66 20 -141 22 -386 10z m300 -395 c89 -37 65 -139 -36 -152
l-47 -6 -4 73 c-3 41 -3 80 0 87 6 16 45 15 87 -2z"/>
<path d="M3260 1461 l0 -501 343 0 c189 0 361 5 385 10 61 15 119 56 150 109
25 42 27 55 27 156 0 96 -3 116 -24 155 -31 59 -57 88 -105 112 l-38 19 33 17
c54 28 74 64 73 135 -1 74 -27 138 -79 195 -69 77 -79 79 -442 87 l-323 7 0
-501z m420 139 c48 -48 0 -94 -77 -74 -19 5 -23 13 -23 50 l0 44 40 0 c27 0
47 -7 60 -20z m39 -294 c7 -8 11 -27 9 -43 -3 -26 -6 -28 -55 -31 -49 -3 -53
-1 -53 20 0 13 -3 33 -6 46 -6 21 -3 22 44 22 31 0 54 -5 61 -14z"/>
<path d="M3012 1852 c-100 -70 -138 -102 -126 -106 8 -3 72 -6 140 -6 94 0
126 3 130 13 3 8 3 55 2 106 l-3 92 -143 -99z"/>
<path d="M4214 1752 c-6 -4 -10 -35 -10 -73 l1 -66 46 37 c26 20 60 42 78 49
17 8 31 17 31 21 0 10 -86 40 -114 40 -12 0 -26 -4 -32 -8z"/>
<path d="M1185 1638 c-4 -13 -84 -662 -81 -664 0 -1 57 -3 126 -5 l125 -4 9
63 c8 59 10 62 36 62 32 0 37 -9 46 -81 l7 -52 119 6 c66 3 122 7 124 10 2 2
-29 154 -69 338 l-74 334 -182 3 c-140 2 -182 0 -186 -10z m228 -355 c2 -5 7
-25 11 -45 l7 -38 -36 0 c-30 0 -35 3 -35 23 0 41 12 67 31 67 10 0 20 -3 22
-7z"/>
<path d="M1728 1645 c-5 -5 -8 -161 -8 -347 l0 -338 143 0 144 0 -5 338 c-2
185 -5 338 -6 339 -6 7 -262 14 -268 8z"/>
<path d="M2374 1641 c-2 -2 -4 -37 -4 -78 0 -40 -3 -73 -7 -73 -5 0 -25 34
-46 75 l-39 75 -124 0 -124 0 0 -197 c0 -109 3 -262 7 -340 l6 -143 96 0 c142
0 140 0 133 72 -6 74 3 71 43 -11 l29 -61 158 0 158 0 0 228 c0 125 -3 277 -7
339 l-6 112 -134 3 c-74 2 -137 1 -139 -1z"/>
<path d="M2687 1643 c-9 -8 -9 -136 -1 -197 l7 -46 63 0 64 0 0 -98 c0 -55 3
-154 7 -220 l6 -122 140 0 140 0 -7 163 c-4 89 -7 187 -8 217 l-2 55 70 3 69
3 -7 122 c-3 67 -7 123 -7 125 -2 5 -528 1 -534 -5z"/>
<path d="M4450 1636 c-72 -16 -112 -38 -160 -87 -157 -162 -120 -450 71 -553
134 -74 343 -27 423 94 15 22 34 68 42 102 31 120 -15 283 -104 371 -75 73
-165 98 -272 73z m106 -304 c48 -32 32 -105 -24 -110 -42 -4 -62 12 -62 51 0
51 49 84 86 59z"/>
<path d="M4840 1525 l0 -124 68 -3 67 -3 3 -217 2 -218 146 0 145 0 -5 58 c-3
31 -8 130 -12 220 l-6 162 72 0 72 0 -7 118 c-4 64 -9 120 -12 125 -2 4 -123
7 -269 7 l-264 0 0 -125z"/>
<path d="M3160 870 c-8 -5 -68 -10 -133 -10 -117 0 -118 0 -127 -26 -45 -118
65 -265 197 -264 71 1 110 23 393 219 l95 66 -190 5 c-104 3 -197 9 -205 13
-8 4 -22 2 -30 -3z"/>
<path d="M4173 865 c-18 -7 -112 -67 -210 -133 -207 -140 -228 -164 -227 -267
1 -70 18 -109 68 -153 56 -49 135 -64 206 -39 45 17 357 226 392 263 36 39 48
74 48 140 0 60 -22 114 -62 151 -53 50 -149 67 -215 38z"/>
<path d="M1602 859 c-26 -5 -259 -158 -356 -233 -105 -82 -100 -251 10 -327
50 -34 120 -47 177 -31 32 9 823 537 869 581 16 15 -9 16 -327 16 -189 0 -357
-3 -373 -6z"/>
</g>
</svg>
